<svg xmlns="http://www.w3.org/2000/svg" xmlns:xlink="http://www.w3.org/1999/xlink" width="500" zoomAndPan="magnify" viewBox="0 0 375 374.999991" height="500" preserveAspectRatio="xMidYMid meet" version="1.0"><defs><g/><clipPath id="id1"><path d="M 54 137.445312 L 148 137.445312 L 148 223.695312 L 54 223.695312 Z M 54 137.445312 " clip-rule="nonzero"/></clipPath><clipPath id="id2"><path d="M 37.5 155 L 68 155 L 68 204 L 37.5 204 Z M 37.5 155 " clip-rule="nonzero"/></clipPath></defs><g clip-path="url(#id1)"><path fill="rgb(12.548828%, 12.548828%, 12.548828%)" d="M 57.433594 208.53125 L 113.480469 208.53125 C 116.078125 208.53125 118.28125 206.597656 118.636719 204.050781 L 125.464844 152.984375 C 125.464844 152.984375 125.464844 152.984375 125.464844 152.960938 C 126.609375 144.117188 134.234375 137.421875 143.199219 137.421875 L 144.542969 137.421875 C 146.371094 137.421875 147.847656 138.894531 147.847656 140.714844 C 147.847656 142.535156 146.371094 144.007812 144.542969 144.007812 L 143.199219 144.007812 C 137.539062 144.007812 132.734375 148.21875 132.007812 153.816406 C 132.007812 153.816406 132.007812 153.816406 132.007812 153.839844 L 125.179688 204.90625 C 124.40625 210.722656 119.382812 215.113281 113.480469 215.113281 L 111.496094 215.113281 C 111.429688 219.898438 107.554688 223.761719 102.730469 223.761719 C 97.90625 223.761719 94.027344 219.898438 93.960938 215.113281 L 80.257812 215.113281 C 80.191406 219.898438 76.316406 223.761719 71.492188 223.761719 C 66.664062 223.761719 62.789062 219.898438 62.722656 215.113281 L 57.433594 215.113281 C 55.605469 215.113281 54.128906 213.644531 54.128906 211.820312 C 54.128906 210 55.605469 208.53125 57.433594 208.53125 Z M 57.433594 208.53125 " fill-opacity="1" fill-rule="nonzero"/></g><path fill="rgb(83.139038%, 19.999695%, 27.059937%)" d="M 77.21875 152.542969 L 88.125 151.226562 C 92.285156 157.855469 101.320312 169.265625 117.3125 176.070312 L 114.273438 198.695312 C 91.691406 185.726562 80.765625 161.828125 77.21875 152.542969 Z M 77.21875 152.542969 " fill-opacity="1" fill-rule="nonzero"/><path fill="rgb(88.62915%, 0%, 10.198975%)" d="M 70.457031 153.355469 C 73.5625 162.179688 84.730469 189.085938 110 203.921875 L 75.324219 203.921875 C 63.691406 183.664062 60.828125 161.519531 60.167969 154.585938 Z M 70.457031 153.355469 " fill-opacity="1" fill-rule="nonzero"/><path fill="rgb(12.548828%, 53.329468%, 88.62915%)" d="M 118.238281 169.265625 C 106.738281 163.933594 99.492188 156.011719 95.480469 150.347656 L 116.960938 147.78125 C 117.972656 147.648438 118.988281 148.023438 119.714844 148.746094 C 120.441406 149.472656 120.773438 150.480469 120.640625 151.488281 Z M 118.238281 169.265625 " fill-opacity="1" fill-rule="nonzero"/><g clip-path="url(#id2)"><path fill="rgb(0%, 35.688782%, 66.668701%)" d="M 38.335938 158.183594 C 38.886719 157.480469 39.679688 157.042969 40.558594 156.933594 L 53.625 155.375 C 54.285156 162.726562 56.996094 183.640625 67.765625 203.921875 L 54.152344 203.921875 C 48.074219 203.921875 42.875 199.398438 42.082031 193.386719 L 37.71875 160.640625 C 37.542969 159.765625 37.785156 158.886719 38.335938 158.183594 Z M 38.335938 158.183594 " fill-opacity="1" fill-rule="nonzero"/></g><g fill="rgb(3.138733%, 3.138733%, 3.138733%)" fill-opacity="1"><g transform="translate(157.684125, 179.048527)"><g><path d="M 46.488281 0 L 41.128906 -34.730469 L 33.585938 -34.730469 L 24.160156 -13.394531 L 14.734375 -34.730469 L 7.242188 -34.730469 L 1.785156 0 L 9.425781 0 L 12.851562 -22.625 L 23.21875 -0.0507812 L 25.054688 -0.0507812 L 35.421875 -22.625 L 38.847656 0 Z M 46.488281 0 "/></g></g></g><g fill="rgb(3.138733%, 3.138733%, 3.138733%)" fill-opacity="1"><g transform="translate(206.049474, 179.048527)"><g><path d="M 25.300781 -26.789062 L 24.558594 -24.261719 C 22.226562 -26.292969 19.199219 -27.535156 15.726562 -27.535156 C 7.691406 -27.535156 1.6875 -21.480469 1.6875 -13.394531 C 1.6875 -5.308594 7.691406 0.792969 15.726562 0.792969 C 19.152344 0.792969 22.128906 -0.398438 24.410156 -2.429688 L 25.054688 0 L 30.710938 0 L 30.710938 -26.789062 Z M 16.324219 -6.050781 C 12.105469 -6.050781 9.03125 -9.226562 9.03125 -13.394531 C 9.03125 -17.613281 12.105469 -20.738281 16.324219 -20.738281 C 20.539062 -20.738281 23.617188 -17.613281 23.617188 -13.394531 C 23.617188 -9.179688 20.539062 -6.050781 16.324219 -6.050781 Z M 16.324219 -6.050781 "/></g></g></g><g fill="rgb(3.138733%, 3.138733%, 3.138733%)" fill-opacity="1"><g transform="translate(240.277262, 179.048527)"><g><path d="M 17.164062 -26.941406 C 13.691406 -26.941406 11.3125 -25.847656 9.375 -23.464844 L 8.085938 -26.789062 L 3.472656 -26.789062 L 3.472656 0 L 10.714844 0 L 10.714844 -13.890625 C 10.714844 -18.257812 12.304688 -20.09375 16.371094 -20.09375 L 19.546875 -20.09375 L 19.546875 -26.941406 Z M 17.164062 -26.941406 "/></g></g></g><g fill="rgb(3.138733%, 3.138733%, 3.138733%)" fill-opacity="1"><g transform="translate(260.466699, 179.048527)"><g><path d="M 28.03125 0 L 18.007812 -13.992188 L 27.089844 -26.789062 L 18.753906 -26.789062 L 10.714844 -14.882812 L 10.714844 -36.414062 L 3.472656 -36.414062 L 3.472656 0 L 10.714844 0 L 10.714844 -12.800781 L 19.25 0 Z M 28.03125 0 "/></g></g></g><g fill="rgb(3.138733%, 3.138733%, 3.138733%)" fill-opacity="1"><g transform="translate(288.295375, 179.048527)"><g><path d="M 29.46875 -13.445312 C 29.46875 -21.183594 23.8125 -27.535156 15.578125 -27.535156 C 7.640625 -27.535156 1.6875 -21.433594 1.6875 -13.394531 C 1.6875 -5.359375 7.691406 0.792969 15.578125 0.792969 C 21.828125 0.792969 26.941406 -2.925781 28.875 -8.78125 L 21.285156 -8.78125 C 20.191406 -6.847656 18.109375 -5.65625 15.578125 -5.65625 C 12.054688 -5.65625 9.675781 -7.691406 9.03125 -11.359375 L 29.320312 -11.359375 C 29.421875 -12.054688 29.46875 -12.75 29.46875 -13.445312 Z M 15.578125 -21.332031 C 18.851562 -21.332031 21.183594 -19.546875 22.226562 -16.273438 L 9.226562 -16.273438 C 10.070312 -19.449219 12.351562 -21.332031 15.578125 -21.332031 Z M 15.578125 -21.332031 "/></g></g></g><g fill="rgb(3.138733%, 3.138733%, 3.138733%)" fill-opacity="1"><g transform="translate(319.447621, 179.048527)"><g><path d="M 16.570312 -6.449219 C 13.890625 -6.449219 12.402344 -7.9375 12.402344 -10.519531 L 12.402344 -20.9375 L 19.695312 -20.9375 L 19.695312 -26.789062 L 12.304688 -26.789062 L 12.304688 -33.738281 L 10.914062 -33.738281 L 0.347656 -22.523438 L 0.347656 -20.9375 L 5.160156 -20.9375 L 5.160156 -9.527344 C 5.160156 -3.621094 8.78125 0 14.683594 0 L 19.84375 0 L 19.84375 -6.449219 Z M 16.570312 -6.449219 "/></g></g></g><g fill="rgb(3.138733%, 3.138733%, 3.138733%)" fill-opacity="1"><g transform="translate(340.777976, 179.048527)"><g><path d="M 12.949219 0.792969 C 19.746094 0.792969 24.210938 -2.777344 24.210938 -8.234375 C 24.210938 -14.785156 18.605469 -15.675781 14.238281 -16.472656 C 11.460938 -16.96875 9.179688 -17.414062 9.179688 -19.199219 C 9.179688 -20.738281 10.519531 -21.730469 12.75 -21.730469 C 15.28125 -21.730469 16.769531 -20.6875 16.820312 -18.554688 L 23.714844 -18.554688 C 23.664062 -23.914062 19.398438 -27.535156 12.949219 -27.535156 C 6.5 -27.535156 2.183594 -24.011719 2.183594 -18.953125 C 2.183594 -12.652344 7.640625 -11.511719 11.90625 -10.765625 C 14.734375 -10.320312 17.066406 -9.773438 17.066406 -7.9375 C 17.066406 -6.152344 15.230469 -5.210938 13.246094 -5.210938 C 10.667969 -5.210938 8.832031 -6.398438 8.78125 -8.78125 L 1.738281 -8.78125 C 1.738281 -3.074219 6.25 0.792969 12.949219 0.792969 Z M 12.949219 0.792969 "/></g></g></g><g fill="rgb(3.138733%, 3.138733%, 3.138733%)" fill-opacity="1"><g transform="translate(157.684125, 224.048524)"><g><path d="M 19.894531 0.792969 C 28.476562 0.792969 35.226562 -4.960938 36.8125 -13.542969 L 29.222656 -13.542969 C 27.980469 -9.179688 24.457031 -6.398438 19.894531 -6.398438 C 13.992188 -6.398438 9.574219 -11.0625 9.574219 -17.316406 C 9.574219 -23.566406 13.992188 -28.277344 19.894531 -28.277344 C 24.261719 -28.277344 27.734375 -25.699219 29.171875 -21.632812 L 36.664062 -21.632812 C 35.074219 -29.867188 28.328125 -35.472656 19.894531 -35.472656 C 9.675781 -35.472656 1.933594 -27.632812 1.933594 -17.316406 C 1.933594 -7.046875 9.675781 0.792969 19.894531 0.792969 Z M 19.894531 0.792969 "/></g></g></g><g fill="rgb(3.138733%, 3.138733%, 3.138733%)" fill-opacity="1"><g transform="translate(195.929957, 224.048524)"><g><path d="M 29.46875 -13.445312 C 29.46875 -21.183594 23.8125 -27.535156 15.578125 -27.535156 C 7.640625 -27.535156 1.6875 -21.433594 1.6875 -13.394531 C 1.6875 -5.359375 7.691406 0.792969 15.578125 0.792969 C 21.828125 0.792969 26.941406 -2.925781 28.875 -8.78125 L 21.285156 -8.78125 C 20.191406 -6.847656 18.109375 -5.65625 15.578125 -5.65625 C 12.054688 -5.65625 9.675781 -7.691406 9.03125 -11.359375 L 29.320312 -11.359375 C 29.421875 -12.054688 29.46875 -12.75 29.46875 -13.445312 Z M 15.578125 -21.332031 C 18.851562 -21.332031 21.183594 -19.546875 22.226562 -16.273438 L 9.226562 -16.273438 C 10.070312 -19.449219 12.351562 -21.332031 15.578125 -21.332031 Z M 15.578125 -21.332031 "/></g></g></g><g fill="rgb(3.138733%, 3.138733%, 3.138733%)" fill-opacity="1"><g transform="translate(227.082203, 224.048524)"><g><path d="M 18.703125 -27.386719 C 15.082031 -27.386719 11.855469 -25.847656 9.824219 -23.464844 L 8.433594 -26.789062 L 3.472656 -26.789062 L 3.472656 0 L 10.714844 0 L 10.714844 -14.039062 C 10.714844 -18.355469 13 -21.035156 16.71875 -21.035156 C 19.84375 -21.035156 21.382812 -19.101562 21.382812 -15.03125 L 21.382812 0 L 28.625 0 L 28.625 -16.222656 C 28.625 -23.019531 24.804688 -27.386719 18.703125 -27.386719 Z M 18.703125 -27.386719 "/></g></g></g><g fill="rgb(3.138733%, 3.138733%, 3.138733%)" fill-opacity="1"><g transform="translate(258.879324, 224.048524)"><g><path d="M 16.570312 -6.449219 C 13.890625 -6.449219 12.402344 -7.9375 12.402344 -10.519531 L 12.402344 -20.9375 L 19.695312 -20.9375 L 19.695312 -26.789062 L 12.304688 -26.789062 L 12.304688 -33.738281 L 10.914062 -33.738281 L 0.347656 -22.523438 L 0.347656 -20.9375 L 5.160156 -20.9375 L 5.160156 -9.527344 C 5.160156 -3.621094 8.78125 0 14.683594 0 L 19.84375 0 L 19.84375 -6.449219 Z M 16.570312 -6.449219 "/></g></g></g><g fill="rgb(3.138733%, 3.138733%, 3.138733%)" fill-opacity="1"><g transform="translate(280.209678, 224.048524)"><g><path d="M 29.46875 -13.445312 C 29.46875 -21.183594 23.8125 -27.535156 15.578125 -27.535156 C 7.640625 -27.535156 1.6875 -21.433594 1.6875 -13.394531 C 1.6875 -5.359375 7.691406 0.792969 15.578125 0.792969 C 21.828125 0.792969 26.941406 -2.925781 28.875 -8.78125 L 21.285156 -8.78125 C 20.191406 -6.847656 18.109375 -5.65625 15.578125 -5.65625 C 12.054688 -5.65625 9.675781 -7.691406 9.03125 -11.359375 L 29.320312 -11.359375 C 29.421875 -12.054688 29.46875 -12.75 29.46875 -13.445312 Z M 15.578125 -21.332031 C 18.851562 -21.332031 21.183594 -19.546875 22.226562 -16.273438 L 9.226562 -16.273438 C 10.070312 -19.449219 12.351562 -21.332031 15.578125 -21.332031 Z M 15.578125 -21.332031 "/></g></g></g><g fill="rgb(3.138733%, 3.138733%, 3.138733%)" fill-opacity="1"><g transform="translate(311.361925, 224.048524)"><g><path d="M 17.164062 -26.941406 C 13.691406 -26.941406 11.3125 -25.847656 9.375 -23.464844 L 8.085938 -26.789062 L 3.472656 -26.789062 L 3.472656 0 L 10.714844 0 L 10.714844 -13.890625 C 10.714844 -18.257812 12.304688 -20.09375 16.371094 -20.09375 L 19.546875 -20.09375 L 19.546875 -26.941406 Z M 17.164062 -26.941406 "/></g></g></g></svg>